<?xml version="1.0" encoding="UTF-8" standalone="no"?>
<svg
   xmlns:dc="http://purl.org/dc/elements/1.1/"
   xmlns:cc="http://creativecommons.org/ns#"
   xmlns:rdf="http://www.w3.org/1999/02/22-rdf-syntax-ns#"
   xmlns:svg="http://www.w3.org/2000/svg"
   xmlns="http://www.w3.org/2000/svg"
   xmlns:xlink="http://www.w3.org/1999/xlink"
   xmlns:sodipodi="http://sodipodi.sourceforge.net/DTD/sodipodi-0.dtd"
   xmlns:inkscape="http://www.inkscape.org/namespaces/inkscape"
   width="500"
   height="500"
   viewBox="0 0 132.29166 132.29167"
   version="1.1"
   id="svg8"
   sodipodi:docname="achiv6.svg"
   inkscape:version="1.0.1 (3bc2e813f5, 2020-09-07)"
   inkscape:export-filename="C:\Users\pareg\Desktop\important\OpenServer\domains\japanese\public\img\achivs\achiv6.png"
   inkscape:export-xdpi="40.942101"
   inkscape:export-ydpi="40.942101">
  <style
     id="style2881" />
  <defs
     id="defs2">
    <linearGradient
       inkscape:collect="always"
       id="linearGradient3483">
      <stop
         style="stop-color:#bc002d;stop-opacity:1;"
         offset="0"
         id="stop3479" />
      <stop
         style="stop-color:#bc002d;stop-opacity:0;"
         offset="1"
         id="stop3481" />
    </linearGradient>
    <rect
       x="26.458332"
       y="34.773808"
       width="127.45135"
       height="132.74776"
       id="rect893" />
    <rect
       x="26.458332"
       y="34.773808"
       width="108.66657"
       height="132.99529"
       id="rect2866" />
    <radialGradient
       inkscape:collect="always"
       xlink:href="#linearGradient3483"
       id="radialGradient864"
       cx="76.189117"
       cy="48.618046"
       fx="76.189117"
       fy="48.618046"
       r="45.798401"
       gradientTransform="matrix(1,0,0,0.28068398,0,34.97174)"
       gradientUnits="userSpaceOnUse" />
  </defs>
  <sodipodi:namedview
     id="base"
     pagecolor="#ffffff"
     bordercolor="#666666"
     borderopacity="1.0"
     inkscape:pageopacity="0.0"
     inkscape:pageshadow="2"
     inkscape:zoom="0.7"
     inkscape:cx="188.80952"
     inkscape:cy="328.57143"
     inkscape:document-units="px"
     inkscape:current-layer="layer1"
     inkscape:document-rotation="0"
     showgrid="false"
     units="px"
     showguides="false"
     inkscape:window-width="1584"
     inkscape:window-height="860"
     inkscape:window-x="0"
     inkscape:window-y="0"
     inkscape:window-maximized="0" />
  <metadata
     id="metadata5">
    <rdf:RDF>
      <cc:Work
         rdf:about="">
        <dc:format>image/svg+xml</dc:format>
        <dc:type
           rdf:resource="http://purl.org/dc/dcmitype/StillImage" />
        <dc:title></dc:title>
      </cc:Work>
    </rdf:RDF>
  </metadata>
  <g
     inkscape:label="レイヤー 1"
     inkscape:groupmode="layer"
     id="layer1">
    <path
       id="path833-1-9-6"
       style="fill:#bc002d;fill-opacity:1;stroke:none;stroke-width:0.300556;stroke-opacity:1"
       d="m 66.175807,11.070216 a 56.978426,56.720784 0 0 0 -10.051879,0.920357 l 7.378825,64.976912 a 55.17925,40.132291 0 0 0 -0.24908,0.01705 55.17925,40.132291 0 0 0 -0.344754,0.02532 55.17925,40.132291 0 0 0 -0.343686,0.02584 55.17925,40.132291 0 0 0 -0.34422,0.02842 55.17925,40.132291 0 0 0 -0.344222,0.02894 55.17925,40.132291 0 0 0 -0.343687,0.03101 55.17925,40.132291 0 0 0 -0.343684,0.03307 55.17925,40.132291 0 0 0 -0.34315,0.0341 55.17925,40.132291 0 0 0 -0.343153,0.03617 55.17925,40.132291 0 0 0 -0.342082,0.03721 55.17925,40.132291 0 0 0 -0.342616,0.03876 55.17925,40.132291 0 0 0 -0.34155,0.04031 55.17925,40.132291 0 0 0 -0.341545,0.04289 55.17925,40.132291 0 0 0 -0.341015,0.04341 55.17925,40.132291 0 0 0 -0.341013,0.04496 55.17925,40.132291 0 0 0 -0.340479,0.04651 55.17925,40.132291 0 0 0 -0.339944,0.04857 55.17925,40.132291 0 0 0 -0.339412,0.04961 55.17925,40.132291 0 0 0 -0.338875,0.05168 55.17925,40.132291 0 0 0 -0.119729,0.0186 56.1182,39.555888 0 0 0 -0.0278,0.0041 56.1182,39.555888 0 0 0 -0.344219,0.05219 56.1182,39.555888 0 0 0 -0.34422,0.05375 56.1182,39.555888 0 0 0 -0.343153,0.05529 56.1182,39.555888 0 0 0 -0.343151,0.05684 56.1182,39.555888 0 0 0 -0.342616,0.0584 56.1182,39.555888 0 0 0 -0.34155,0.05994 56.1182,39.555888 0 0 0 -0.341546,0.06098 56.1182,39.555888 0 0 0 -0.341015,0.06305 56.1182,39.555888 0 0 0 -0.198301,0.03721 L 35.964049,19.806117 A 56.978426,56.720784 0 0 0 21.722197,32.521102 l 25.282561,47.352667 a 56.1182,39.555888 0 0 0 -0.130417,0.03824 56.1182,39.555888 0 0 0 -0.324446,0.09663 56.1182,39.555888 0 0 0 -0.323374,0.09818 56.1182,39.555888 0 0 0 -0.322838,0.09974 56.1182,39.555888 0 0 0 -0.321774,0.100769 56.1182,39.555888 0 0 0 -0.321235,0.102836 56.1182,39.555888 0 0 0 -0.319633,0.10387 56.1182,39.555888 0 0 0 -0.3191,0.104902 56.1182,39.555888 0 0 0 -0.31803,0.106971 56.1182,39.555888 0 0 0 -0.317494,0.108003 56.1182,39.555888 0 0 0 -0.315892,0.109554 56.1182,39.555888 0 0 0 -0.315356,0.110587 56.1182,39.555888 0 0 0 -0.314289,0.112139 56.1182,39.555888 0 0 0 -0.31322,0.113689 56.1182,39.555888 0 0 0 -0.312151,0.115239 56.1182,39.555888 0 0 0 -0.311082,0.116271 56.1182,39.555888 0 0 0 -0.310011,0.117822 56.1182,39.555888 0 0 0 -0.308944,0.119372 56.1182,39.555888 0 0 0 -0.308408,0.120406 56.1182,39.555888 0 0 0 -0.306804,0.121957 56.1182,39.555888 0 0 0 -0.305737,0.122989 56.1182,39.555888 0 0 0 -0.304666,0.124542 56.1182,39.555888 0 0 0 -0.3036,0.12609 56.1182,39.555888 0 0 0 -0.302526,0.127124 56.1182,39.555888 0 0 0 -0.301463,0.128673 56.1182,39.555888 0 0 0 -0.299856,0.130225 56.1182,39.555888 0 0 0 -0.299321,0.13126 56.1182,39.555888 0 0 0 -0.297719,0.132291 56.1182,39.555888 0 0 0 -0.296651,0.133842 56.1182,39.555888 0 0 0 -0.295579,0.13539 56.1182,39.555888 0 0 0 -0.293976,0.136427 56.1182,39.555888 0 0 0 -0.12347,0.05839 L 13.295745,47.095408 A 56.978426,56.720784 0 0 0 9.3911952,66.145923 L 30.635048,87.242827 a 56.1182,39.555888 0 0 0 -0.254958,0.165881 56.1182,39.555888 0 0 0 -0.257633,0.1695 56.1182,39.555888 0 0 0 -0.255491,0.170532 56.1182,39.555888 0 0 0 -0.254424,0.172082 56.1182,39.555888 0 0 0 -0.252821,0.172598 56.1182,39.555888 0 0 0 -0.251217,0.174152 56.1182,39.555888 0 0 0 -0.249614,0.17518 56.1182,39.555888 0 0 0 -0.248543,0.176218 56.1182,39.555888 0 0 0 -0.246406,0.17725 56.1182,39.555888 0 0 0 -0.244803,0.1788 56.1182,39.555888 0 0 0 -0.243734,0.179319 56.1182,39.555888 0 0 0 -0.241596,0.18035 56.1182,39.555888 0 0 0 -0.239992,0.181901 56.1182,39.555888 0 0 0 -0.238923,0.182933 56.1182,39.555888 0 0 0 -0.236783,0.183452 56.1182,39.555888 0 0 0 -0.235184,0.185002 56.1182,39.555888 0 0 0 -0.233577,0.185517 56.1182,39.555888 0 0 0 -0.231975,0.187071 56.1182,39.555888 0 0 0 -0.230372,0.188101 56.1182,39.555888 0 0 0 -0.228232,0.188619 56.1182,39.555888 0 0 0 -0.227165,0.190169 56.1182,39.555888 0 0 0 -0.225026,0.190688 56.1182,39.555888 0 0 0 -0.223957,0.192235 56.1182,39.555888 0 0 0 -0.221819,0.192752 56.1182,39.555888 0 0 0 -0.219682,0.193789 56.1182,39.555888 0 0 0 -0.218611,0.19482 56.1182,39.555888 0 0 0 -0.216475,0.195853 56.1182,39.555888 0 0 0 -0.114383,0.104902 L 11.74996,84.021319 a 56.978426,56.720784 0 0 0 7.628438,15.882233 56.130056,40.737361 0 0 1 0.150195,-0.197921 56.130056,40.737361 0 0 1 0.17211,-0.222724 56.130056,40.737361 0 0 1 0.174249,-0.221692 56.130056,40.737361 0 0 1 0.176386,-0.221691 56.130056,40.737361 0 0 1 0.178523,-0.22066 56.130056,40.737361 0 0 1 0.139507,-0.170016 56.966392,55.075756 0 0 0 45.988169,22.572782 56.966392,55.075756 0 0 0 47.927343,-25.307497 56.130056,40.737361 0 0 1 0.0647,0.06563 56.130056,40.737361 0 0 1 0.20365,0.209291 56.130056,40.737361 0 0 1 0.20097,0.210323 56.130056,40.737361 0 0 1 0.19884,0.210838 56.130056,40.737361 0 0 1 0.19776,0.211357 56.130056,40.737361 0 0 1 0.0871,0.09509 56.978426,56.720784 0 0 0 6.40871,-15.46624 l -11.83445,8.117851 a 56.1182,39.555888 0 0 0 -0.12347,-0.09405 56.1182,39.555888 0 0 0 -0.24053,-0.181383 56.1182,39.555888 0 0 0 -0.24213,-0.180353 56.1182,39.555888 0 0 0 -0.24374,-0.179316 56.1182,39.555888 0 0 0 -0.24532,-0.178284 56.1182,39.555888 0 0 0 -0.24695,-0.176734 56.1182,39.555888 0 0 0 -0.24854,-0.176215 56.1182,39.555888 0 0 0 -0.24961,-0.174668 56.1182,39.555888 0 0 0 -0.25176,-0.174148 56.1182,39.555888 0 0 0 -0.25335,-0.172601 56.1182,39.555888 0 0 0 -0.25443,-0.171564 56.1182,39.555888 0 0 0 -0.25656,-0.170532 56.1182,39.555888 0 0 0 -0.25763,-0.168984 56.1182,39.555888 0 0 0 -0.25924,-0.167947 56.1182,39.555888 0 0 0 -0.2603,-0.167431 56.1182,39.555888 0 0 0 -0.26244,-0.165364 56.1182,39.555888 0 0 0 -0.26351,-0.164849 56.1182,39.555888 0 0 0 -0.26512,-0.163814 56.1182,39.555888 0 0 0 -0.26671,-0.162264 56.1182,39.555888 0 0 0 -0.26778,-0.160713 56.1182,39.555888 0 0 0 -0.26993,-0.160197 56.1182,39.555888 0 0 0 -0.27046,-0.158647 56.1182,39.555888 0 0 0 -0.27259,-0.157615 56.1182,39.555888 0 0 0 -0.27367,-0.156578 56.1182,39.555888 0 0 0 -0.27474,-0.15503 56.1182,39.555888 0 0 0 -0.27687,-0.153995 56.1182,39.555888 0 0 0 -0.20258,-0.111623 L 123.27845,65.53666 A 56.978426,56.720784 0 0 0 119.82181,48.212135 L 96.838683,82.222462 a 56.1182,39.555888 0 0 0 -0.031,-0.01292 56.1182,39.555888 0 0 0 -0.304666,-0.124023 56.1182,39.555888 0 0 0 -0.30627,-0.122989 56.1182,39.555888 0 0 0 -0.307342,-0.121441 56.1182,39.555888 0 0 0 -0.307873,-0.120407 56.1182,39.555888 0 0 0 -0.309479,-0.118853 56.1182,39.555888 0 0 0 -0.310547,-0.117306 56.1182,39.555888 0 0 0 -0.311079,-0.116274 56.1182,39.555888 0 0 0 -0.312685,-0.114721 56.1182,39.555888 0 0 0 -0.313219,-0.11317 56.1182,39.555888 0 0 0 -0.314822,-0.112138 56.1182,39.555888 0 0 0 -0.31536,-0.110588 56.1182,39.555888 0 0 0 -0.316427,-0.109037 56.1182,39.555888 0 0 0 -0.317492,-0.108003 56.1182,39.555888 0 0 0 -0.318031,-0.105937 56.1182,39.555888 0 0 0 -0.319099,-0.104905 56.1182,39.555888 0 0 0 -0.320168,-0.10387 56.1182,39.555888 0 0 0 -0.321236,-0.101801 56.1182,39.555888 0 0 0 -0.322306,-0.100769 56.1182,39.555888 0 0 0 -0.32284,-0.09922 56.1182,39.555888 0 0 0 -0.323911,-0.09767 56.1182,39.555888 0 0 0 -0.324442,-0.09664 56.1182,39.555888 0 0 0 -0.325515,-0.09508 56.1182,39.555888 0 0 0 -0.326579,-0.09302 56.1182,39.555888 0 0 0 -0.327119,-0.0925 56.1182,39.555888 0 0 0 -0.327649,-0.09043 56.1182,39.555888 0 0 0 -0.328719,-0.08888 56.1182,39.555888 0 0 0 -0.32979,-0.08785 56.1182,39.555888 0 0 0 -0.330323,-0.0863 56.1182,39.555888 0 0 0 -0.331392,-0.08475 56.1182,39.555888 0 0 0 -0.331394,-0.0832 56.1182,39.555888 0 0 0 -0.07964,-0.01964 L 111.2163,32.833229 A 56.978426,56.720784 0 0 0 98.115614,20.705803 L 80.490352,77.739531 a 56.1182,39.555888 0 0 0 -0.03474,-0.0052 56.1182,39.555888 0 0 0 -0.34422,-0.05219 56.1182,39.555888 0 0 0 -0.345289,-0.05013 56.1182,39.555888 0 0 0 -0.345288,-0.04857 56.1182,39.555888 0 0 0 -0.345826,-0.04754 56.1182,39.555888 0 0 0 -0.346356,-0.04548 56.1182,39.555888 0 0 0 -0.34636,-0.04444 56.1182,39.555888 0 0 0 -0.153937,-0.0186 55.17925,40.132291 0 0 0 -0.05718,-0.0078 55.17925,40.132291 0 0 0 -0.341549,-0.04289 55.17925,40.132291 0 0 0 -0.341546,-0.04186 55.17925,40.132291 0 0 0 -0.341549,-0.03979 55.17925,40.132291 0 0 0 -0.342616,-0.03876 55.17925,40.132291 0 0 0 -0.342082,-0.03772 55.17925,40.132291 0 0 0 -0.343687,-0.03514 55.17925,40.132291 0 0 0 -0.343152,-0.03359 55.17925,40.132291 0 0 0 -0.343686,-0.03255 55.17925,40.132291 0 0 0 -0.343687,-0.03049 55.17925,40.132291 0 0 0 -0.343685,-0.02946 55.17925,40.132291 0 0 0 -0.344753,-0.0279 55.17925,40.132291 0 0 0 -0.344223,-0.02584 55.17925,40.132291 0 0 0 -0.344753,-0.02429 55.17925,40.132291 0 0 0 -0.344757,-0.02325 55.17925,40.132291 0 0 0 -0.34529,-0.02067 55.17925,40.132291 0 0 0 -0.345289,-0.02016 55.17925,40.132291 0 0 0 -0.345287,-0.0186 55.17925,40.132291 0 0 0 -0.345827,-0.0155 55.17925,40.132291 0 0 0 -0.345822,-0.01551 55.17925,40.132291 0 0 0 -0.346358,-0.01395 55.17925,40.132291 0 0 0 -0.34529,-0.01137 55.17925,40.132291 0 0 0 -0.0465,-0.0016 l 7.327506,-64.521125 a 56.978426,56.720784 0 0 0 -11.881485,-1.247469 56.978426,56.720784 0 0 0 -0.169971,0 z" />
    <path
       id="path833"
       style="fill:#ffddc5;fill-opacity:1;stroke:#ff80bb;stroke-width:0.331999;stroke-opacity:1"
       d="M 65.922074,4.2731242 A 61.872894,61.872894 0 0 0 4.2731242,66.145832 61.872894,61.872894 0 0 0 66.145832,128.01854 61.872894,61.872894 0 0 0 128.01854,66.145832 61.872894,61.872894 0 0 0 66.145832,4.2731242 a 61.872894,61.872894 0 0 0 -0.223758,0 z m 0.05994,6.7970008 a 55.075756,55.075756 0 0 1 0.163814,0 A 55.075756,55.075756 0 0 1 121.22154,66.145832 55.075756,55.075756 0 0 1 66.145832,121.22154 55.075756,55.075756 0 0 1 11.070125,66.145832 55.075756,55.075756 0 0 1 65.982018,11.070125 Z" />
    <text
       xml:space="preserve"
       id="text891"
       style="font-style:normal;font-weight:normal;font-size:32.6486px;line-height:1;font-family:sans-serif;white-space:pre;shape-inside:url(#rect893);fill:#ffb7c5;fill-opacity:1;stroke:url(#radialGradient864);stroke-width:1.00012;stroke-miterlimit:4;stroke-dasharray:none;stroke-opacity:1;"
       transform="matrix(1.0813269,0,0,1.0797342,-15.770741,15.05828)"
       x="46.93047"
       y="0"
       inkscape:export-xdpi="40.942101"
       inkscape:export-ydpi="40.942101"><tspan
         x="26.458984"
         y="60.478671"><tspan
           style="shape-inside:url(#rect893)">100%</tspan></tspan></text>
  </g>
</svg>
