<?xml version="1.0" encoding="UTF-8" standalone="no"?>
<svg
   xmlns:dc="http://purl.org/dc/elements/1.1/"
   xmlns:cc="http://creativecommons.org/ns#"
   xmlns:rdf="http://www.w3.org/1999/02/22-rdf-syntax-ns#"
   xmlns:svg="http://www.w3.org/2000/svg"
   xmlns="http://www.w3.org/2000/svg"
   xmlns:xlink="http://www.w3.org/1999/xlink"
   xmlns:sodipodi="http://sodipodi.sourceforge.net/DTD/sodipodi-0.dtd"
   xmlns:inkscape="http://www.inkscape.org/namespaces/inkscape"
   width="500"
   height="500"
   viewBox="0 0 132.29166 132.29167"
   version="1.1"
   id="svg8"
   sodipodi:docname="achiv5.svg"
   inkscape:version="1.0.1 (3bc2e813f5, 2020-09-07)"
   inkscape:export-filename="C:\Users\pareg\Desktop\important\OpenServer\domains\japanese\public\img\achivs\achiv5.png"
   inkscape:export-xdpi="40.942146"
   inkscape:export-ydpi="40.942146">
  <style
     id="style2881" />
  <defs
     id="defs2">
    <linearGradient
       inkscape:collect="always"
       id="linearGradient2877">
      <stop
         style="stop-color:#000000;stop-opacity:1;"
         offset="0"
         id="stop2873" />
      <stop
         style="stop-color:#000000;stop-opacity:0;"
         offset="1"
         id="stop2875" />
    </linearGradient>
    <rect
       x="24.568452"
       y="40.443452"
       width="112.25893"
       height="57.45238"
       id="rect2615" />
    <rect
       x="26.458332"
       y="34.773808"
       width="108.66657"
       height="132.99529"
       id="rect893" />
    <rect
       x="26.458332"
       y="34.773808"
       width="108.66657"
       height="132.99529"
       id="rect2866" />
    <radialGradient
       inkscape:collect="always"
       xlink:href="#linearGradient2877"
       id="radialGradient2881"
       cx="77.898476"
       cy="62.767593"
       fx="77.898476"
       fy="62.767593"
       r="50.798489"
       gradientTransform="matrix(1,0,0,0.3190982,0,42.738567)"
       gradientUnits="userSpaceOnUse" />
  </defs>
  <sodipodi:namedview
     id="base"
     pagecolor="#ffffff"
     bordercolor="#666666"
     borderopacity="1.0"
     inkscape:pageopacity="0.0"
     inkscape:pageshadow="2"
     inkscape:zoom="0.35"
     inkscape:cx="329.34271"
     inkscape:cy="68.26222"
     inkscape:document-units="px"
     inkscape:current-layer="layer1"
     inkscape:document-rotation="0"
     showgrid="false"
     units="px"
     showguides="false"
     inkscape:window-width="1584"
     inkscape:window-height="860"
     inkscape:window-x="0"
     inkscape:window-y="0"
     inkscape:window-maximized="0" />
  <metadata
     id="metadata5">
    <rdf:RDF>
      <cc:Work
         rdf:about="">
        <dc:format>image/svg+xml</dc:format>
        <dc:type
           rdf:resource="http://purl.org/dc/dcmitype/StillImage" />
        <dc:title></dc:title>
      </cc:Work>
    </rdf:RDF>
  </metadata>
  <g
     inkscape:label="レイヤー 1"
     inkscape:groupmode="layer"
     id="layer1">
    <path
       id="path833"
       style="fill:#ffddc5;fill-opacity:1;stroke:#ff80bb;stroke-width:0.331999;stroke-opacity:1"
       d="M 65.922074,4.2731242 A 61.872894,61.872894 0 0 0 4.2731242,66.145832 61.872894,61.872894 0 0 0 66.145832,128.01854 61.872894,61.872894 0 0 0 128.01854,66.145832 61.872894,61.872894 0 0 0 66.145832,4.2731242 a 61.872894,61.872894 0 0 0 -0.223758,0 z m 0.05994,6.7970008 a 55.075756,55.075756 0 0 1 0.163814,0 A 55.075756,55.075756 0 0 1 121.22154,66.145832 55.075756,55.075756 0 0 1 66.145832,121.22154 55.075756,55.075756 0 0 1 11.070125,66.145832 55.075756,55.075756 0 0 1 65.982018,11.070125 Z" />
    <path
       style="opacity:1;fill:#22283e;fill-opacity:1;stroke:none;stroke-width:0.559129;stroke-linecap:round;stroke-linejoin:round;paint-order:stroke fill markers"
       d="m 56.045328,121.80554 c -0.974551,-0.15168 -3.449525,-0.82783 -5.499943,-1.50255 -6.973852,-2.29486 -13.257019,-5.33484 -17.288631,-8.36476 C 30.320346,109.73139 23.084033,102.49462 20.876174,99.55685 16.920529,94.293488 12.886364,85.511703 11.26462,78.633911 9.9384882,73.009806 9.7964517,61.359393 10.98173,55.430084 13.930897,40.676987 22.662481,27.742332 35.428117,19.216085 c 2.71656,-1.814407 8.707804,-4.889023 11.905469,-6.10971 5.554796,-2.120502 10.150456,-2.825906 18.410595,-2.825906 10.761867,0 16.507353,1.171049 24.472119,4.987923 12.21593,5.854111 20.91345,14.596441 26.91612,27.05478 2.12081,4.401673 4.15739,10.344862 4.59126,13.398277 0.17757,1.24964 0.33304,6.390764 0.35472,11.729896 l 0.0386,9.505183 -0.8823,2.65586 c -4.22947,12.731364 -7.75158,18.826423 -15.19152,26.289152 -4.98743,5.00269 -9.394225,8.11437 -16.076069,11.35147 -4.47828,2.16955 -8.294109,3.56315 -11.336678,4.14031 -2.831829,0.53719 -19.793128,0.84676 -22.585115,0.41222 z"
       id="path2611" />
    <path
       style="opacity:1;fill:#22283e;fill-opacity:1;stroke:none;stroke-width:0.557123;stroke-linecap:round;stroke-linejoin:round;paint-order:stroke fill markers"
       d="m 77.15767,12.088758 c 0.972223,0.150954 3.441288,0.82387 5.486813,1.495362 6.957199,2.283881 13.225366,5.309317 17.247352,8.324742 2.929395,2.196281 10.148435,9.398429 12.351025,12.322146 3.94619,5.238179 7.97073,13.97795 9.5886,20.822838 1.32296,5.597198 1.46467,17.191874 0.28222,23.092815 -2.94214,14.682517 -11.65287,27.555289 -24.388024,36.040749 -2.710075,1.80573 -8.687014,4.86563 -11.877044,6.08048 -5.541535,2.11035 -10.126221,2.81239 -18.366641,2.81239 -10.736175,0 -16.467937,-1.16545 -24.413691,-4.96407 C 30.88151,112.29011 22.204765,103.5896 16.216427,91.190868 14.10068,86.810255 12.068963,80.895498 11.636129,77.856691 11.458983,76.613028 11.303884,71.4965 11.282255,66.182913 l -0.03851,-9.45971 0.880194,-2.643153 C 16.34331,41.409599 19.857011,35.343699 27.279178,27.916671 32.2547,22.937914 36.650986,19.841122 43.316872,16.619508 c 4.467588,-2.15917 8.274308,-3.546103 11.309613,-4.120502 2.825069,-0.53462 19.745872,-0.842709 22.531192,-0.410248 z"
       id="path2611-2" />
    <text
       xml:space="preserve"
       id="text2613"
       style="font-style:normal;font-weight:normal;font-size:35.2778px;line-height:1.25;font-family:sans-serif;white-space:pre;shape-inside:url(#rect2615);fill:#ffffff;fill-opacity:1;stroke:#000000;stroke-width:1.00012;stroke-linecap:round;stroke-linejoin:round;stroke-miterlimit:4;stroke-dasharray:none;stroke-opacity:1;"
       transform="translate(-11.752641,3.3782394)"
       inkscape:export-xdpi="40.942146"
       inkscape:export-ydpi="40.942146"><tspan
         x="24.568359"
         y="75.169945"><tspan
           style="font-size:35.2778px;fill:#ffffff;fill-opacity:1;stroke:#000000;stroke-width:1.00012;stroke-linecap:round;stroke-linejoin:round;stroke-miterlimit:4;stroke-dasharray:none;stroke-opacity:1">間違</tspan><tspan
           style="font-size:35.2778px;fill:#ffffff;fill-opacity:1;stroke:#000000;stroke-width:1.00012;stroke-linecap:round;stroke-linejoin:round;stroke-miterlimit:4;stroke-dasharray:none;stroke-opacity:1">い</tspan></tspan></text>
  </g>
</svg>
